<svg fill="none" height="24" viewBox="0 0 24 24" width="24" xmlns="http://www.w3.org/2000/svg"><g clip-rule="evenodd" fill="#0f0f0f" fill-rule="evenodd"><path d="m12.2754.944403c-.9301-.200398-2.0532.026009-3.14362 1.116397-.79959.79958-1.13348 1.61562-1.17712 2.35865-.74298.0437-1.55892.3776-2.35843 1.17711-.79943.79942-1.13334 1.61529-1.17709 2.3582-.74299.04369-1.55895.37759-2.35847 1.17711-1.090378 1.09043-1.316786 2.21353-1.11639 3.14363.26715 1.24 1.41727 1.82 2.04663 2.106l10.04589 4.5664c.759.3449 1.6523.1829 2.2418-.4066l3.2626-3.2625c.5895-.5896.7515-1.4829.4066-2.2419l-4.5663-10.04587c-.2861-.62936-.8661-1.77948-2.1061-2.046627zm-.9123 1.982227c.1946-.06115.3567-.05606.4911-.02709.0725.01562.1692.0622.2998.21779.1385.16515.2697.39982.4067.70131l4.5663 10.04586-.1232.1232-6.7673-8.70089c-.1289-.13294-.2214-.30993-.26292-.48985-.0496-.21495-.08532-.66422.57242-1.32195.3409-.34089.6194-.48629.8171-.54838zm-6.0764 7.31017 8.7008 6.7673-.1231.123-10.04588-4.5663c-.3015-.137-.53616-.2682-.70131-.4067-.15559-.1306-.20217-.2273-.21779-.2998-.02897-.1345-.03407-.2965.02709-.4911.06209-.1977.20749-.4762.54838-.8171.65773-.65775 1.107-.62203 1.32194-.57242.18112.04182.35795.13112.48987.26312zm10.1263 5.342-8.7731-6.82348c-.05619-.07296-.1587-.23558-.20186-.42261-.0496-.21494-.08533-.66421.57241-1.32194.65773-.65773 1.10699-.62201 1.32193-.5724.1875.04326.35051.14624.42316.20228l6.82306 8.77255z"/><path d="m15.7878 19.4464c-.4954.4955-.6255 1.3503-.0897 1.9742.3713.4324 1.1588 1.2324 2.2471 1.5841.5646.1826 1.2162.2458 1.9131.0677.694-.1773 1.3654-.5766 2.0014-1.2126s1.0353-1.3075 1.2127-2.0015c.178-.6969.1148-1.3484-.0677-1.9131-.3518-1.0882-1.1518-1.8758-1.5841-2.247-.624-.5358-1.4788-.4058-1.9742.0897zm2.7725 1.6553c-.371-.1199-.7123-.3631-.986-.6134l2.9139-2.9139c.2503.2737.4935.615.6134.9859.0837.2589.1046.5229.033.8029-.0723.2829-.2563.6496-.6891 1.0824s-.7995.6168-1.0824.6891c-.2799.0715-.5439.0507-.8028-.033z"/></g></svg>